<svg xmlns="http://www.w3.org/2000/svg" viewBox="0 0 189.26 142.7"><defs><style>.cls-1{fill:none;stroke:#d15e15;stroke-miterlimit:10;stroke-width:3px;}</style></defs><title>Asset 4_2</title><g id="Layer_2" data-name="Layer 2"><g id="Layer_1-2" data-name="Layer 1"><path class="cls-1" d="M183.4,117.91a4.38,4.38,0,0,1,4.36,4.37v14.55a4.38,4.38,0,0,1-4.36,4.37H5.87a4.38,4.38,0,0,1-4.37-4.37V5.87A4.37,4.37,0,0,1,5.87,1.5H20.42a4.37,4.37,0,0,1,4.36,4.37v112Zm-16-104.77H126.65a8.75,8.75,0,0,0-6.19,14.92l12,12L106.24,66.55,86,46.32a4.33,4.33,0,0,0-6.15,0L36.57,89.17a4.36,4.36,0,0,0-.07,6.15L46.87,106a4.35,4.35,0,0,0,6.22,0L83,76.19l20.19,20.19a4.38,4.38,0,0,0,6.19,0l39.73-39.73L161.21,68.8a8.74,8.74,0,0,0,14.91-6.18V21.87A8.71,8.71,0,0,0,167.39,13.14Z"/></g></g></svg>