<svg xmlns="http://www.w3.org/2000/svg" viewBox="0 0 166.33 148.19"><defs><style>.cls-1{fill:none;stroke:#d15e15;stroke-miterlimit:10;stroke-width:3px;}</style></defs><title>Asset 20</title><g id="Layer_2" data-name="Layer 2"><g id="Layer_1-2" data-name="Layer 1"><path class="cls-1" d="M151.22,1.5H15.11A13.62,13.62,0,0,0,1.5,15.11v90.74a13.61,13.61,0,0,0,13.61,13.61H69.56L65,133.07H44.6a6.81,6.81,0,0,0,0,13.62h77.13a6.81,6.81,0,0,0,0-13.62H101.31l-4.53-13.61h54.44a13.61,13.61,0,0,0,13.61-13.61V15.11A13.61,13.61,0,0,0,151.22,1.5Zm-4.53,99.81h-127V19.65h127Z"/></g></g></svg>