<svg xmlns="http://www.w3.org/2000/svg" viewBox="0 0 189.67 148.19"><defs><style>.cls-1{fill:none;stroke:#d15e15;stroke-miterlimit:10;stroke-width:3px;}</style></defs><title>Asset 1_3</title><g id="Layer_2" data-name="Layer 2"><g id="Layer_1-2" data-name="Layer 1"><path class="cls-1" d="M26,146.69a15.57,15.57,0,0,1-13.76-8.29,93.34,93.34,0,1,1,165.12,0,15.55,15.55,0,0,1-13.75,8.29Zm141.4-62.23A10.37,10.37,0,1,0,177.8,94.83,10.37,10.37,0,0,0,167.43,84.46ZM94.83,32.61A10.37,10.37,0,1,0,84.46,22.24,10.37,10.37,0,0,0,94.83,32.61ZM22.24,84.46A10.37,10.37,0,1,0,32.61,94.83,10.37,10.37,0,0,0,22.24,84.46ZM43.5,33.13A10.37,10.37,0,1,0,53.87,43.5,10.38,10.38,0,0,0,43.5,33.13Zm102.66,0A10.37,10.37,0,1,0,156.53,43.5,10.38,10.38,0,0,0,146.16,33.13ZM117.94,43.35a7.77,7.77,0,0,0-9.77,5L93.28,94.9a20.72,20.72,0,1,0,14.82,4.73L123,53.13a7.77,7.77,0,0,0-5-9.78Z"/></g></g></svg>