<?xml version="1.0" encoding="iso-8859-1"?>
<!-- Generator: Adobe Illustrator 19.0.0, SVG Export Plug-In . SVG Version: 6.00 Build 0)  -->
<svg xmlns="http://www.w3.org/2000/svg" xmlns:xlink="http://www.w3.org/1999/xlink" version="1.1" id="Capa_1" x="0px" y="0px" viewBox="0 0 512.002 512.002" style="enable-background:new 0 0 512.002 512.002;" xml:space="preserve" width="512px" height="512px">
<g>
	<g>
		<path d="M410.738,205.137C388.378,164.959,346.712,140,302.001,140s-86.377,24.959-108.738,65.137    c-1.683,3.024-1.683,6.703,0,9.727C215.624,255.041,257.29,280,302.001,280c44.71,0,86.376-24.959,108.737-65.136    C412.421,211.84,412.421,208.161,410.738,205.137z M302.001,259.999c-35.629,0-69.008-19.02-88.39-49.999    c19.382-30.979,52.761-50,88.39-50c35.629,0,69.007,19.021,88.39,50C371.009,240.979,337.63,259.999,302.001,259.999z" fill="#d15e15"/>
	</g>
</g>
<g>
	<g>
		<path d="M302.001,180c-16.542,0-30,13.457-30,29.999s13.458,30,30,30s30-13.458,30-30S318.543,180,302.001,180z M302.001,219.999    c-5.514,0-10-4.486-10-10c0-5.514,4.486-9.999,10-9.999c5.514,0,10,4.486,10,9.999    C312.001,215.514,307.516,219.999,302.001,219.999z" fill="#d15e15"/>
	</g>
</g>
<g>
	<g>
		<path d="M302.001,0c-115.794,0-210,94.206-210,209.999c0,43.471,13.278,83.898,35.99,117.441L11.679,443.753    C4.148,451.285,0,461.33,0,472.038s4.148,20.753,11.68,28.284c7.531,7.532,17.576,11.68,28.284,11.68s20.753-4.148,28.285-11.679    L184.561,384.01c33.543,22.711,73.97,35.989,117.441,35.989c115.794,0,210-94.206,210-210C512.001,94.206,417.796,0,302.001,0z     M54.105,486.18c-3.754,3.754-8.776,5.822-14.142,5.822c-5.365,0-10.388-2.068-14.142-5.822C22.067,482.425,20,477.403,20,472.038    c0-5.366,2.068-10.388,5.822-14.142l85.85-85.85c8.656,10.166,18.118,19.628,28.284,28.284L54.105,486.18z M154.139,386.146    c-10.228-8.587-19.697-18.056-28.284-28.284l14.19-14.19c8.515,10.309,17.978,19.772,28.284,28.284L154.139,386.146z     M302.001,399.999c-104.766,0-190-85.234-190-190S197.235,20,302.001,20s190,85.233,190,189.999S406.768,399.999,302.001,399.999z    " fill="#d15e15"/>
	</g>
</g>
<g>
	<g>
		<path d="M228.161,62.105c-2.763-4.784-8.88-6.422-13.66-3.66c-17.478,10.091-32.956,23.014-46.003,38.409    c-3.571,4.213-3.05,10.523,1.163,14.094c1.879,1.593,4.176,2.371,6.461,2.371c2.837,0,5.656-1.201,7.634-3.535    c11.556-13.635,25.265-25.081,40.745-34.019C229.284,73.003,230.923,66.888,228.161,62.105z" fill="#d15e15"/>
	</g>
</g>
<g>
	<g>
		<path d="M164.225,118.643c-4.782-2.762-10.898-1.126-13.662,3.656l-0.115,0.198c-2.763,4.782-1.126,10.898,3.656,13.662    c1.576,0.91,3.296,1.343,4.994,1.343c3.455,0,6.815-1.792,8.668-4.999l0.115-0.198    C170.644,127.522,169.006,121.406,164.225,118.643z" fill="#d15e15"/>
	</g>
</g>
<g>
</g>
<g>
</g>
<g>
</g>
<g>
</g>
<g>
</g>
<g>
</g>
<g>
</g>
<g>
</g>
<g>
</g>
<g>
</g>
<g>
</g>
<g>
</g>
<g>
</g>
<g>
</g>
<g>
</g>
</svg>
