<svg xmlns="http://www.w3.org/2000/svg" viewBox="0 0 148.19 148.19"><defs><style>.cls-1{fill:none;stroke:#d15e15;stroke-miterlimit:10;stroke-width:3px;}</style></defs><title>Asset 22</title><g id="Layer_2" data-name="Layer 2"><g id="Layer_1-2" data-name="Layer 1"><path class="cls-1" d="M1.5,15.11A131.56,131.56,0,0,0,133.07,146.69a6.81,6.81,0,0,0,6.64-5.28l6.8-29.49a6.89,6.89,0,0,0-4-7.83L110.78,90.48a6.81,6.81,0,0,0-7.94,2L88.78,109.62A105.07,105.07,0,0,1,38.53,59.38L55.72,45.31a6.79,6.79,0,0,0,2-7.94L44.06,5.61a6.86,6.86,0,0,0-7.8-3.94L6.77,8.48A6.79,6.79,0,0,0,1.5,15.11Z"/></g></g></svg>