<svg xmlns="http://www.w3.org/2000/svg" viewBox="0 0 219.35 176.06"><defs><style>.cls-1{fill:none;stroke:#d15e15;stroke-miterlimit:10;stroke-width:3px;}</style></defs><title>Asset 2_2</title><g id="Layer_2" data-name="Layer 2"><g id="Layer_1-2" data-name="Layer 1"><path class="cls-1" d="M95.78,174.39l-20.62-6a4.07,4.07,0,0,1-2.77-5L118.53,4.43a4.06,4.06,0,0,1,5-2.77l20.62,6a4.06,4.06,0,0,1,2.77,5L100.82,171.62A4.05,4.05,0,0,1,95.78,174.39ZM57.25,136.46,72,120.78a4.05,4.05,0,0,0-.27-5.82L41.06,88,71.68,61.08A4,4,0,0,0,72,55.27L57.25,39.58a4.07,4.07,0,0,0-5.75-.17L2.79,85.05a4,4,0,0,0,0,5.91L51.5,136.63a4,4,0,0,0,5.75-.17Zm110.6.2L216.56,91a4,4,0,0,0,0-5.92l-48.71-45.7a4.09,4.09,0,0,0-5.74.17L147.4,55.23a4.07,4.07,0,0,0,.27,5.82L178.3,88,147.67,115a4,4,0,0,0-.27,5.82l14.71,15.68a4,4,0,0,0,5.74.2Z"/></g></g></svg>